<!--?xml version="1.0" encoding="utf-8"?-->
<!-- Generator: Adobe Illustrator 18.1.1, SVG Export Plug-In . SVG Version: 6.00 Build 0)  -->

<svg version="1.1" id="_x32_" xmlns="http://www.w3.org/2000/svg" xmlns:xlink="http://www.w3.org/1999/xlink" x="0px" y="0px" viewBox="0 0 512 512" style="width: 32px; height: 32px; opacity: 1;" xml:space="preserve">
<style type="text/css">
	.st0{fill:#4B4B4B;}
</style>
<g>
	<path class="st0" d="M446.679,283.669c0.58-4.494,0.866-9.02,0.866-13.563c0-39.724-21.365-74.505-53.793-92.994
		c0.507-3.766,0.785-7.811,0.785-12.15c0-39.626-25.827-75.15-63.231-87.61c-10.458-5.564-16.373-11.782-17.263-14.036
		C303.2,32.98,263.86,5.315,231.514,5.315c-5.008,0-9.886,0.629-14.494,1.855c-23.734,6.332-32.076,20.181-34.895,30.687
		c-3.105,11.553-0.924,22.868,6.496,33.76c-1.774,1.682-3.987,3.53-6.48,5.286c-38.383,12.011-64.676,47.363-64.676,88.059
		c0,4.339,0.278,8.391,0.784,12.157c-32.42,18.482-53.793,53.27-53.793,93.011c0,4.526,0.294,9.052,0.867,13.538
		C28.123,304.413,0,348.794,0,394.474c0,16.162,2.607,31.219,7.754,44.757c8.293,22.126,24.364,40.754,45.198,52.307l0.728,0.392
		c18.031,9.796,39.446,14.755,63.671,14.755H256H394.65c24.242,0,45.664-4.967,63.704-14.772l0.694-0.376
		c20.834-11.553,36.905-30.181,45.255-52.453c5.09-13.391,7.696-28.449,7.696-44.61C512,348.794,483.878,304.413,446.679,283.669z
		 M472.962,427.343c-5.646,15.066-16.275,27.24-30.141,34.928l-0.057,0.025c-13.726,7.566-30.042,10.923-48.115,10.923H256H117.35
		c-18.073,0-34.388-3.357-48.115-10.923l-0.057-0.025c-13.865-7.688-24.494-19.862-30.14-34.928
		c-3.792-9.976-5.573-21.038-5.573-32.869c0-45.165,37.911-87.201,73.296-89.432c-5.613-10.392-8.84-22.256-8.84-34.912
		c0-38.286,29.266-69.709,66.604-73.287c-5.784-5.385-13.595-12.632-13.595-31.881c0-27.779,19.265-50.982,45.132-57.208
		c15.598-9.404,40.525-31.774,24.511-49.912c-7.583-7.582-10.859-14.086,5.066-18.334c1.846-0.49,3.815-0.727,5.874-0.727
		c19.013,0,45.312,19.845,51.023,35.826c5.589,15.622,23.417,27.583,36.048,33.825c24.528,7.124,42.486,29.707,42.486,56.53
		c0,19.25-7.811,26.496-13.595,31.881c37.346,3.578,66.604,35.001,66.604,73.287c0.008,12.656-3.227,24.52-8.84,34.912
		c35.386,2.231,73.295,44.267,73.295,89.432C478.534,406.305,476.753,417.367,472.962,427.343z" style="fill: rgb(75, 75, 75);"></path>
</g>
</svg>
